<svg width="22" height="21" viewBox="0 0 22 21" fill="none" xmlns="http://www.w3.org/2000/svg">
<rect x="0.987793" y="0.00914478" width="20.9817" height="20.9817" rx="10.4909" fill="#F53838" fill-opacity="0.1"/>
<path d="M16.3668 8.48689C15.7714 5.86701 13.4861 4.6875 11.4787 4.6875C11.4787 4.6875 11.4787 4.6875 11.473 4.6875C9.47121 4.6875 7.18024 5.86134 6.58481 8.48122C5.92133 11.4073 7.71329 13.8854 9.33512 15.4449C9.93621 16.0233 10.7074 16.3125 11.4787 16.3125C12.2499 16.3125 13.0211 16.0233 13.6165 15.4449C15.2383 13.8854 17.0303 11.413 16.3668 8.48689ZM11.4787 11.3279C10.4919 11.3279 9.69237 10.5284 9.69237 9.54165C9.69237 8.55494 10.4919 7.75536 11.4787 7.75536C12.4654 7.75536 13.2649 8.55494 13.2649 9.54165C13.2649 10.5284 12.4654 11.3279 11.4787 11.3279Z" fill="#F53838"/>
</svg>
