<svg width="21" height="21" viewBox="0 0 21 21" fill="none" xmlns="http://www.w3.org/2000/svg">
<rect x="0.012207" y="0.00914478" width="20.9817" height="20.9817" rx="10.4909" fill="#F53838" fill-opacity="0.1"/>
<path d="M12.8792 4.82927H8.12709C6.06295 4.82927 4.8324 6.05982 4.8324 8.12396V12.8704C4.8324 14.9402 6.06295 16.1707 8.12709 16.1707H12.8735C14.9376 16.1707 16.1682 14.9402 16.1682 12.876V8.12396C16.1739 6.05982 14.9433 4.82927 12.8792 4.82927ZM12.8848 14.0442C12.244 14.0442 11.7223 13.5225 11.7223 12.8817C11.7223 12.5074 11.9038 12.1785 12.1817 11.963C11.9435 11.3393 11.3481 10.9083 10.6789 10.931L9.51075 10.9366H9.50508C9.15917 10.9366 8.83026 10.8346 8.5524 10.6588V11.8043C8.98337 11.9744 9.28959 12.394 9.28959 12.8817C9.28959 13.5225 8.76789 14.0442 8.12709 14.0442C7.4863 14.0442 6.96459 13.5225 6.96459 12.8817C6.96459 12.3884 7.27081 11.9744 7.70179 11.8043V9.3375C7.27081 9.13902 6.96459 8.70805 6.96459 8.20335C6.96459 7.51719 7.526 6.95579 8.21215 6.95579C8.89831 6.95579 9.45971 7.51719 9.45971 8.20335C9.45971 8.75908 9.09112 9.22408 8.58642 9.38854C8.69984 9.8025 9.0741 10.0917 9.50508 10.0917C9.50508 10.0917 9.50508 10.0917 9.51075 10.0917L10.6789 10.086C10.6846 10.086 10.6846 10.086 10.6903 10.086C11.7337 10.086 12.6693 10.7495 13.0096 11.7362C13.5937 11.7986 14.053 12.2863 14.053 12.8874C14.0473 13.5225 13.5256 14.0442 12.8848 14.0442Z" fill="#F53838"/>
</svg>
