<svg width="22" height="21" viewBox="0 0 22 21" fill="none" xmlns="http://www.w3.org/2000/svg">
<rect x="0.96344" y="0.00914478" width="20.9817" height="20.9817" rx="10.4909" fill="#F53838" fill-opacity="0.1"/>
<path d="M11.4543 10.5C13.0202 10.5 14.2896 9.23056 14.2896 7.66463C14.2896 6.0987 13.0202 4.82927 11.4543 4.82927C9.88833 4.82927 8.6189 6.0987 8.6189 7.66463C8.6189 9.23056 9.88833 10.5 11.4543 10.5Z" fill="#F53838"/>
<path d="M11.4543 11.9177C8.61322 11.9177 6.29956 13.823 6.29956 16.1707C6.29956 16.3295 6.42432 16.4543 6.5831 16.4543H16.3254C16.4842 16.4543 16.609 16.3295 16.609 16.1707C16.609 13.823 14.2953 11.9177 11.4543 11.9177Z" fill="#F53838"/>
</svg>
