<svg width="11" height="10" viewBox="0 0 11 10" fill="none" xmlns="http://www.w3.org/2000/svg">
<path d="M6.33265 1.04996L7.17562 2.7359C7.29057 2.9658 7.5971 3.1957 7.85255 3.23402L9.37884 3.48947C10.3559 3.65551 10.5858 4.35798 9.88334 5.06046L8.69552 6.25467C8.49755 6.45264 8.3826 6.84219 8.44646 7.12318L8.78493 8.59838C9.05314 9.76066 8.43369 10.2141 7.40552 9.60739L5.97503 8.75803C5.71319 8.60476 5.29171 8.60476 5.02988 8.75803L3.593 9.601C2.56483 10.2077 1.94537 9.75427 2.21359 8.59199L2.55206 7.11679C2.61592 6.84219 2.50097 6.45264 2.303 6.24828L1.12156 5.06684C0.419085 4.36437 0.648986 3.65551 1.62606 3.49585L3.15235 3.24041C3.4078 3.1957 3.71433 2.97219 3.82928 2.74229L4.67225 1.05635C5.12567 0.136744 5.87923 0.136744 6.33265 1.04996Z" fill="#F3CC40"/>
</svg>
